<?xml version="1.0" encoding="UTF-8" standalone="no"?>
<svg
   xmlns:dc="http://purl.org/dc/elements/1.1/"
   xmlns:cc="http://creativecommons.org/ns#"
   xmlns:rdf="http://www.w3.org/1999/02/22-rdf-syntax-ns#"
   xmlns:svg="http://www.w3.org/2000/svg"
   xmlns="http://www.w3.org/2000/svg"
   xmlns:sodipodi="http://sodipodi.sourceforge.net/DTD/sodipodi-0.dtd"
   xmlns:inkscape="http://www.inkscape.org/namespaces/inkscape"
   version="1.1"
   width="150"
   height="150"
   viewBox="-0.9 -0.9 1.8 1.8"
   id="svg146"
   sodipodi:docname="8.svg"
   inkscape:version="0.92.2 (5c3e80d, 2017-08-06)">
  <metadata
     id="metadata152">
    <rdf:RDF>
      <cc:Work
         rdf:about="">
        <dc:format>image/svg+xml</dc:format>
        <dc:type
           rdf:resource="http://purl.org/dc/dcmitype/StillImage" />
      </cc:Work>
    </rdf:RDF>
  </metadata>
  <defs
     id="defs150" />
  <sodipodi:namedview
     pagecolor="#ffffff"
     bordercolor="#666666"
     borderopacity="1"
     objecttolerance="10"
     gridtolerance="10"
     guidetolerance="10"
     inkscape:pageopacity="0"
     inkscape:pageshadow="2"
     inkscape:window-width="1920"
     inkscape:window-height="1147"
     id="namedview148"
     showgrid="false"
     inkscape:zoom="3.26"
     inkscape:cx="96.80998"
     inkscape:cy="114.93659"
     inkscape:window-x="-8"
     inkscape:window-y="-8"
     inkscape:window-maximized="1"
     inkscape:current-layer="svg146" />
  <g
     style="stroke-width:0.1;stroke-linejoin:round;opacity:1"
     id="g88">
    <polygon
       fill="#000000"
       stroke="#000000"
       points="-4.9165444344952E-17,-0.71734170954349 0.70405037145575,-0.41272706360467 6.3108540577985E-17,-0.021725090572532 -0.70405037145575,-0.41272706360467"
       id="polygon82" />
    <polygon
       fill="#000000"
       stroke="#000000"
       points="6.3108540577985E-17,-0.021725090572532 0.70405037145575,-0.41272706360467 0.62948028357061,0.36901272915735 5.5589468959362E-17,0.81107056444244"
       id="polygon84" />
    <polygon
       fill="#000000"
       stroke="#000000"
       points="-0.70405037145575,-0.41272706360467 6.3108540577985E-17,-0.021725090572532 5.5589468959362E-17,0.81107056444244 -0.62948028357061,0.36901272915735"
       id="polygon86" />
  </g>
  <g
     style="opacity:1;stroke-opacity:0.5;stroke-width:0;stroke-linejoin:round"
     id="g144">
    <polygon
       fill="#888888"
       stroke="#000000"
       points="-4.9439549272153E-17,-0.74757064564692 0.19598754651203,-0.66277461469571 -1.6979580126642E-17,-0.57123720961754 -0.19598754651203,-0.66277461469571"
       id="polygon90" />
    <polygon
       fill="#888888"
       stroke="#000000"
       points="0.23200530924361,-0.64654708450724 0.44357407294753,-0.55500967942906 0.24823152717746,-0.45589370157761 0.03601776273158,-0.55500967942906"
       id="polygon92" />
    <polygon
       fill="#888888"
       stroke="#000000"
       points="0.48258385553552,-0.53743199405155 0.71166883865722,-0.4383160162001 0.51778341539206,-0.3306396536664 0.28724130976545,-0.43831601620009"
       id="polygon94" />
    <polygon
       fill="#888888"
       stroke="#000000"
       points="-0.23200530924361,-0.64654708450724 -0.03601776273158,-0.55500967942906 -0.24823152717746,-0.45589370157761 -0.44357407294753,-0.55500967942906"
       id="polygon96" />
    <polygon
       fill="#FFFF00"
       stroke="#000000"
       points="-1.1906711768916E-17,-0.53743199405155 0.21221376444588,-0.43831601620009 1.3125827139793E-17,-0.3306396536664 -0.21221376444588,-0.43831601620009"
       id="polygon98" />
    <polygon
       fill="#888888"
       stroke="#000000"
       points="0.25135344771691,-0.4192120352454 0.48189555334352,-0.31153567271171 0.27050899589682,-0.1941398664099 0.03913968327103,-0.31153567271171"
       id="polygon100" />
    <polygon
       fill="#888888"
       stroke="#000000"
       points="-0.48258385553552,-0.53743199405155 -0.28724130976545,-0.43831601620009 -0.51778341539206,-0.3306396536664 -0.71166883865722,-0.43831601620009"
       id="polygon102" />
    <polygon
       fill="#0077FF"
       stroke="#000000"
       points="-0.25135344771691,-0.4192120352454 -0.03913968327103,-0.31153567271171 -0.27050899589682,-0.1941398664099 -0.48189555334352,-0.31153567271171"
       id="polygon104" />
    <polygon
       fill="#888888"
       stroke="#000000"
       points="1.9219742927126E-17,-0.29069716027551 0.23136931262579,-0.1733013539737 6.3251582941518E-17,-0.044807908897155 -0.23136931262579,-0.1733013539737"
       id="polygon106" />
    <polygon
       fill="#888888"
       stroke="#000000"
       points="0.019572311898468,-0.01096266104553 0.25094162452426,-0.13945610612208 0.24139184674777,0.12672756322786 0.019572311898468,0.26171620101574"
       id="polygon108" />
    <polygon
       fill="#888888"
       stroke="#000000"
       points="0.28930534489087,-0.16171652284677 0.50069190233757,-0.27911232914857 0.48317508531013,-0.019324131300046 0.27975556711438,0.10446714650317"
       id="polygon110" />
    <polygon
       fill="#888888"
       stroke="#000000"
       points="0.53586287162127,-0.29952357725519 0.72974829488643,-0.40719993978888 0.70556381569579,-0.15366705164652 0.51834605459384,-0.039735379406663"
       id="polygon112" />
    <polygon
       fill="#888888"
       stroke="#000000"
       points="0.018796486168384,0.30740091161998 0.24061602101769,0.1724122738321 0.23182332941007,0.41749346528561 0.018796486168384,0.55752511994163"
       id="polygon114" />
    <polygon
       fill="#0077FF"
       stroke="#000000"
       points="0.27748498154717,0.14913168479738 0.48090449974292,0.025340406994164 0.46472097442439,0.26535483831193 0.26869228993956,0.39421287625089"
       id="polygon116" />
    <polygon
       fill="#888888"
       stroke="#000000"
       points="0.51482272047627,0.0039202514920256 0.70204048157822,-0.11001142074783 0.6796261786066,0.12496419825545 0.49863919515774,0.24393468280979"
       id="polygon118" />
    <polygon
       fill="#0077FF"
       stroke="#000000"
       points="0.018079821190449,0.59957070958542 0.23110666443214,0.4595390549294 0.22298446134887,0.68593152923737 0.018079821190449,0.82982754001392"
       id="polygon120" />
    <polygon
       fill="#0077FF"
       stroke="#000000"
       points="0.26659321028119,0.43546258559693 0.46262189476603,0.30660454765797 0.44762501691219,0.52902006212629 0.25847100719792,0.6618550599049"
       id="polygon122" />
    <polygon
       fill="#0077FF"
       stroke="#000000"
       points="0.49537315323635,0.28438159074811 0.67636013668521,0.16541110619376 0.65552852022793,0.38379496484358 0.4803762753825,0.50679710521643"
       id="polygon124" />
    <polygon
       fill="#888888"
       stroke="#000000"
       points="-0.73033661801848,-0.40664800069716 -0.53645119475332,-0.29897163816347 -0.51893437772588,-0.039183440314942 -0.70615213882784,-0.1531151125548"
       id="polygon126" />
    <polygon
       fill="#FFA500"
       stroke="#000000"
       points="-0.50139487638912,-0.27854802283962 -0.29000831894242,-0.16115221653782 -0.28045854116593,0.10503145281212 -0.48387805936169,-0.018759824991097"
       id="polygon128" />
    <polygon
       fill="#888888"
       stroke="#000000"
       points="-0.25178425197513,-0.13888300088285 -0.020414939349334,-0.010389555806295 -0.020414939349334,0.26228930625497 -0.24223447419864,0.12730066846709"
       id="polygon130" />
    <polygon
       fill="#888888"
       stroke="#000000"
       points="-0.70259025607703,-0.10956681966126 -0.51537249497507,0.0043648525785978 -0.49918896965654,0.24437928389636 -0.68017595310541,0.12540879934202"
       id="polygon132" />
    <polygon
       fill="#FFA500"
       stroke="#000000"
       points="-0.48155663212918,0.025787474064964 -0.27813711393343,0.14957875186818 -0.26934442232581,0.39465994332169 -0.46537310681065,0.26580190538273"
       id="polygon134" />
    <polygon
       fill="#888888"
       stroke="#000000"
       points="-0.24139184674777,0.17285724590871 -0.019572311898468,0.30784588369658 -0.019572311898468,0.55797009201823 -0.23259915514016,0.41793843736221"
       id="polygon136" />
    <polygon
       fill="#FFA500"
       stroke="#000000"
       points="-0.67687496656198,0.16576684053069 -0.49588798311312,0.28473732508503 -0.48089110525928,0.50715283955335 -0.6560433501047,0.38415069918051"
       id="polygon138" />
    <polygon
       fill="#FFA500"
       stroke="#000000"
       points="-0.46322848371637,0.30695545587912 -0.26719979923154,0.43581349381808 -0.25907759614827,0.66220596812605 -0.44823160586253,0.52937097034744"
       id="polygon140" />
    <polygon
       fill="#FFA500"
       stroke="#000000"
       points="-0.23182332941007,0.45988002752827 -0.018796486168384,0.59991168218429 -0.018796486168384,0.83016851261279 -0.2237011263268,0.68627250183624"
       id="polygon142" />
  </g>
  <path
     style="fill:#ffffff;stroke-width:0.012"
     id="path158"
     d="m -0.34750332,-0.10210684 c 0.005989,8.3772e-4 0.0120358,0.001142 0.018075,0.001325 0.004701,1.2648e-4 0.009405,9.36e-5 0.0141075,7.2e-5 6.6396e-4,-3.05e-6 0.001333,-8.76e-5 0.001992,-9.16e-6 0.00129,1.5468e-4 0.002522,6.3432e-4 0.003799,8.7612e-4 0.001226,2.3232e-4 0.002521,1.4508e-4 0.003705,5.3784e-4 7.74e-4,2.5656e-4 0.001454,7.3788e-4 0.002182,0.0011069 0.003995,0.0021185 0.005727,0.0037341 0.0102808,0.0044681 0.003788,6.6096e-4 0.007684,-5.04e-5 0.0113981,9.1104e-4 0.003496,7.7868e-4 0.007001,0.0017486 0.010289,0.0032034 0.00319,0.0011089 0.00597,0.003152 0.009109,0.0043503 0.002075,6.3768e-4 0.004505,8.0376e-4 0.00638,0.0019959 0.001137,7.2264e-4 0.002029,0.001773 0.00307,0.0026281 0.00167,0.0012276 0.002638,0.0035371 0.004408,0.0046255 2.9784e-4,1.8312e-4 6.6516e-4,2.1564e-4 9.978e-4,3.234e-4 4.5876e-4,3.0384e-4 9.1752e-4,6.078e-4 0.001376,9.1164e-4 0.002788,0.0011029 0.004671,0.003618 0.007405,0.0047764 0.003079,0.0020057 0.004265,0.005773 0.00694,0.0081513 0.003,0.0015651 0.005517,0.0037334 0.007905,0.0061096 0.002909,0.0022687 0.004747,0.0055617 0.007645,0.0078576 0.00344,0.0016898 0.006217,0.0043426 0.009266,0.0065925 0.002746,0.0018469 0.004022,0.0051486 0.006529,0.0071833 0.002508,0.0021006 0.004696,0.004457 0.006632,0.007103 0.001492,0.0024866 0.002982,0.0049689 0.00462,0.007358 0.001597,0.0024956 0.003257,0.004886 0.00518,0.0071263 0.00266,0.002126 0.004529,0.00502626 0.005914,0.00809454 0.001335,0.00257826 0.002655,0.005190196 0.004214,0.00764148 0.001685,0.00282777 0.00386,0.00534359 0.005805,0.00800122 0.002239,0.0031592 0.004073,0.0066121 0.006323,0.0097578 0.002019,0.0033892 0.003518,0.0070301 0.00521,0.0105821 0.001068,0.0028501 0.002564,0.0054324 0.004153,0.0079918 0.001432,0.003085 0.003655,0.0056705 0.0053,0.0086233 0.002073,0.0025977 0.002863,0.0058237 0.003938,0.0088979 0.001036,0.0028992 0.002037,0.0058188 0.003114,0.0087045 1.7784e-4,4.4532e-4 2.958e-4,9.1944e-4 5.334e-4,0.0013359 4.1796e-4,7.3236e-4 0.001092,0.0012932 0.001538,0.0020086 0.001011,0.0016206 0.001746,0.0033662 0.002655,0.0050415 0.001416,0.0025902 0.002988,0.0050911 0.00448,0.0076438 0.00139,0.0033782 0.002121,0.0069841 0.003091,0.01050326 8.1444e-4,0.0030773 0.001726,0.0061161 0.002558,0.0091915 0.001064,0.002856 0.002896,0.005495 0.004531,0.008098 0.001894,0.00284 0.002347,0.006285 0.003816,0.009318 0.00133,0.002797 0.002495,0.005686 0.003581,0.008589 0.001248,0.002918 0.002426,0.005881 0.003535,0.00886 0.001306,0.002662 0.002274,0.0054 0.003659,0.008015 0.001519,0.003157 0.002651,0.006496 0.004206,0.009635 0.001742,0.003025 0.0022096,0.006486 0.003116,0.009799 6.1476e-4,0.003243 0.0017727,0.006329 0.0025997,0.009514 4.0548e-4,0.003658 0.0012589,0.007223 0.0019748,0.0108267 7.4952e-4,0.004013 7.98e-4,0.008109 8.9112e-4,0.012177 -1.368e-4,0.003505 8.1228e-4,0.006898 0.0012524,0.0103488 4.4604e-4,0.00407 5.5188e-4,0.008166 6.2196e-4,0.0122568 -1.44e-5,0.004261 5.06e-6,0.008522 1.56e-5,0.0127828 -2.4e-5,0.004239 -2.88e-5,0.008478 -1.44e-5,0.0127171 1.56e-5,0.004218 -1.92e-5,0.008435 -7.98e-6,0.0126529 3.84e-5,0.004094 8.73e-6,0.008188 -5.16e-6,0.0122825 -8.55e-6,0.004162 4.56e-5,0.008324 3.86e-6,0.0124854 -1.68e-5,0.004189 8.64e-6,0.008379 2.16e-5,0.0125679 -5.16e-5,0.004253 -2.04e-5,0.008507 -5.96e-6,0.0127609 -1.8e-5,0.004237 -2.16e-5,0.008474 -6.94e-6,0.0127106 3.72e-5,0.004127 -1.32e-5,0.008253 -1.127e-5,0.0123797 3.36e-5,0.004174 8.49e-6,0.008347 -3.75e-6,0.0125206 -6.96e-6,0.004174 4.8e-5,0.008348 6.36e-6,0.0125225 -1.44e-5,0.002863 -1.26e-6,0.005726 8.65e-6,0.008589 0,0 -0.04869955,0.0248136 -0.04869955,0.0248136 v 0 c 9.89e-6,-0.002866 2.28e-5,-0.005732 8.65e-6,-0.008598 -4.2e-5,-0.004176 1.32e-5,-0.008353 6.37e-6,-0.012529 -1.2e-5,-0.004172 -3.72e-5,-0.008344 -3.75e-6,-0.0125167 2.16e-6,-0.004123 -4.92e-5,-0.008245 -1.127e-5,-0.0123683 1.44e-5,-0.004235 1.157e-5,-0.008469 -6.94e-6,-0.0127036 1.44e-5,-0.004251 4.56e-5,-0.008503 -5.96e-6,-0.0127547 1.32e-5,-0.004197 3.72e-5,-0.008393 2.16e-5,-0.0125898 -4.2e-5,-0.004163 1.32e-5,-0.008326 3.84e-6,-0.0124893 -1.44e-5,-0.004092 -4.32e-5,-0.008185 -5.32e-6,-0.0122771 1.161e-5,-0.004216 -2.4e-5,-0.008431 -6.77e-6,-0.0126467 1.56e-5,-0.004238 1.32e-5,-0.008476 -6.6e-7,-0.0127145 1.92e-5,-0.004239 5.88e-5,-0.008478 -4.64e-6,-0.0127172 -1.44e-5,-0.003911 -2.64e-5,-0.007828 -3.6516e-4,-0.0117264 -3.96e-4,-0.003645 -0.001477,-0.0072 -0.001461,-0.010872 -3.24e-5,-0.003782 -5.76e-5,-0.00758 -5.6172e-4,-0.0113351 -5.7852e-4,-0.003536 -0.001667,-0.006963 -0.001876,-0.0105543 -6.6348e-4,-0.003173 -0.001992,-0.006143 -0.002463,-0.009363 -8.2572e-4,-0.002982 -0.001257,-0.006084 -0.002663,-0.008863 -0.00151,-0.003073 -0.002595,-0.006345 -0.004033,-0.009453 -6.402e-4,-0.001119 -0.001397,-0.002177 -0.001928,-0.003352 -7.8912e-4,-0.001745 -0.001014,-0.003812 -0.002197,-0.005412 -0.001013,-0.003009 -0.00226,-0.005954 -0.003569,-0.008839 -9.1956e-4,-0.002751 -0.002105,-0.005421 -0.003253,-0.008078 -0.001412,-0.002892 -0.002015,-0.006054 -0.003565,-0.008864 -0.001814,-0.003046 -0.003939,-0.006033 -0.005177,-0.009334 -0.001004,-0.003077 -0.001751,-0.006266 -0.002675,-0.00936 -7.5636e-4,-0.003075 -0.001608,-0.006122 -0.002424,-0.009169 -0.001518,-0.002613 -0.00309,-0.005193 -0.0045,-0.007863 -7.7724e-4,-0.0014704 -0.001383,-0.0030534 -0.002311,-0.0044374 -7.9536e-4,-0.0011854 -0.001506,-0.0018153 -0.002251,-0.0031111 -2.4072e-4,-4.1844e-4 -3.558e-4,-8.9748e-4 -5.3376e-4,-0.0013461 -0.001199,-0.0029153 -0.00203,-0.0060081 -0.003176,-0.008945 -9.6048e-4,-0.0028064 -0.001686,-0.0056722 -0.003526,-0.0080648 -0.001538,-0.0028519 -0.003675,-0.0053589 -0.005052,-0.0083133 -0.001841,-0.0027153 -0.003425,-0.005542 -0.004532,-0.0086502 -0.001503,-0.0033131 -0.002835,-0.0066999 -0.004759,-0.0098032 -0.002091,-0.0031667 -0.003978,-0.0064685 -0.006098,-0.0096197 -0.002111,-0.0027492 -0.004565,-0.0052663 -0.006242,-0.008325 -0.001628,-0.0027116 -0.003114,-0.0055122 -0.004525,-0.0083437 -0.001098,-0.0026496 -0.003077,-0.0046851 -0.005114,-0.0066607 -0.002071,-0.0023921 -0.003781,-0.0050288 -0.005515,-0.00767196 -0.001562,-0.00233599 -0.003129,-0.00467096 -0.004515,-0.00711649 -0.001827,-0.00237019 -0.003914,-0.0044173 -0.00614,-0.00641416 -0.002064,-0.00223976 -0.003739,-0.00482893 -0.006214,-0.00667557 -0.002988,-0.0024767 -0.006192,-0.0046186 -0.009352,-0.0068606 -0.002747,-0.0025453 -0.004853,-0.0056832 -0.007797,-0.0080329 -0.002558,-0.0022806 -0.005489,-0.0040431 -0.008045,-0.0063286 -0.002027,-0.0023057 -0.003443,-0.005288 -0.006205,-0.0067996 -0.002475,-0.0017206 -0.004842,-0.0035936 -0.007505,-0.0050336 -0.00272,-0.001711 -0.004731,-0.0040588 -0.007035,-0.0062598 -0.002609,-0.0018891 -0.005921,-0.0020952 -0.008761,-0.0035803 -0.002866,-0.0015072 -0.005777,-0.0029721 -0.008848,-0.004014 -0.003189,-9.1488e-4 -0.006323,-0.0019845 -0.009659,-0.0022556 -0.003927,-1.44e-5 -0.007875,-3.7788e-4 -0.0116683,-0.001435 -0.00372,-0.0012685 -0.006846,-0.0035472 -0.010539,-0.0048515 -0.003533,-4.8648e-4 -0.007022,-0.0013107 -0.0106134,-0.00102 -0.00471,-4.32e-5 -0.009421,-1.2144e-4 -0.0141255,-3.6624e-4 -0.006148,-4.0248e-4 -0.0122785,-9.942e-4 -0.0184178,-0.0015017 0,0 0.0445889,-0.03164784 0.0445889,-0.03164784 z"
     inkscape:connector-curvature="0" />
  <path
     style="fill:#ffffff;stroke-width:0.012"
     id="path160"
     d="m -0.19253636,0.19988858 c 0.00182,0.005312 0.004127,0.0100914 0.008197,0.0140065 0.002858,0.002568 0.004464,0.006045 0.006353,0.009299 0.001493,0.00269 0.002634,0.005568 0.004116,0.008261 0.00185,0.002019 0.00428,0.003097 0.006151,0.005144 0.001965,0.002545 0.003503,0.005451 0.005727,0.007785 0.001595,0.002435 0.003431,0.004732 0.004895,0.007243 0.001672,0.002515 0.002929,0.005118 0.005215,0.007153 0.002263,0.002083 0.004186,0.004418 0.005919,0.006964 0.001319,0.003092 0.002271,0.006267 0.003832,0.009254 9.1452e-4,0.002916 0.003226,0.004674 0.004822,0.007146 0.001894,0.002806 0.003584,0.005717 0.005429,0.008559 0.00193,0.003777 0.003705,0.007605 0.005831,0.0112833 0.001259,0.002957 0.00279,0.005751 0.004739,0.008319 0.001744,0.002981 0.002931,0.006249 0.004503,0.009315 0.001341,0.002863 0.00285,0.005601 0.003747,0.008643 8.4288e-4,0.002799 0.002014,0.005527 0.003463,0.008067 0.001444,0.002977 0.003458,0.005425 0.004792,0.008487 0.001612,0.00322 0.002955,0.006577 0.004114,0.009985 5.5704e-4,0.003537 0.0020612,0.006714 0.0034289,0.009972 7.3056e-4,0.002888 0.0024961,0.005273 0.0036516,0.007968 -2.0172e-4,-2.94e-4 3.756e-4,0.001541 9.0996e-4,0.001393 7.1244e-4,-1.98e-4 3e-4,-0.001331 3.6132e-4,-0.001644 6.12e-5,-3.156e-4 7.1556e-4,-0.001018 4.3404e-4,-8.616e-4 -0.01556947,0.00862 -0.0309617,0.0175556 -0.04644255,0.0263335 0.003228,-0.001333 0.003538,-0.003191 0.005641,-0.005606 0.001556,-0.003002 0.003993,-0.005426 0.005487,-0.008436 0.002068,-0.003029 0.00467,-0.003165 0.006125,-0.006764 0.001633,-0.00304 0.00194,-0.006495 0.003476,-0.009558 0.001779,-0.003183 0.002613,-0.006749 0.00407,-0.010083 0.001243,-0.003327 0.00356,-0.006286 0.006273,-0.00856 3.3144e-4,-3.816e-4 6.2844e-4,-7.956e-4 9.9444e-4,-0.001145 0.002607,-0.002482 -6.5856e-4,0.001134 0.00223,-0.001845 0.001269,-0.001309 0.002031,-0.002967 0.00295,-0.00452 0.0026997,-0.002268 0.0037462,-0.00572 0.0059548,-0.008348 3.696e-4,-4.668e-4 6.9168e-4,-9.756e-4 0.0011089,-0.001401 0.0020407,-0.002077 5.6304e-4,7.2e-5 0.0023732,-0.002201 0.0010337,-0.001298 0.001548,-0.002875 0.0023016,-0.004336 0.0012022,-0.003217 0.0033463,-0.005962 0.0046303,-0.009116 0.0018082,-0.003186 0.002545,-0.006854 0.0045272,-0.009927 0.0025371,-0.002888 0.0041817,-0.006275 0.0059287,-0.009664 0.0010586,-0.002983 0.0026168,-0.005692 0.0045049,-0.008221 0.0022616,-0.003668 0.0040061,-0.00759 0.0065139,-0.0111132 0.001663,-0.002797 0.0036019,-0.005375 0.0054217,-0.00805 0.0017042,-0.003386 0.0032046,-0.006881 0.0049494,-0.0102416 2.7996e-4,-6.2736e-4 4.7796e-4,-0.001298 8.4e-4,-0.001882 6.3168e-4,-0.001019 0.0016081,-0.001787 0.0022833,-0.002778 9.5352e-4,-0.001398 0.0018386,-0.002853 0.0027971,-0.004254 9.2484e-4,-0.003015 0.0032599,-0.004895 0.0051807,-0.007195 0.0027503,-0.001409 0.0035736,-0.004322 0.0052277,-0.00673 0.0014123,-0.002875 0.003182,-0.005254 0.0055974,-0.007377 0.0012036,-0.001331 6.7524e-4,-5.676e-4 0.001528,-0.002328 0,0 0.05012429,-0.0222193 0.05012429,-0.0222193 v 0 c -0.0011665,0.001568 -6.7728e-4,6.5784e-4 -0.0013392,0.002796 -0.0012202,0.002466 -0.00116,0.001911 -0.0029999,0.003535 -3.9132e-4,3.4548e-4 -6.1416e-4,8.568e-4 -0.0010112,0.001196 -3.4884e-4,2.9772e-4 -9.1164e-4,3.234e-4 -0.0011929,6.8568e-4 -3.42e-4,4.4028e-4 -3.7536e-4,0.00105 -5.6304e-4,0.001575 -9.9924e-4,0.001782 -0.0024304,0.003302 -0.0032204,0.005209 -2.4996e-4,6.0324e-4 -2.1948e-4,0.0013 -4.782e-4,0.0019 -1.8684e-4,4.3296e-4 -5.5632e-4,7.6164e-4 -8.346e-4,0.001143 -0.00299727,0.001748 8.2644e-4,-6.6228e-4 -0.00197098,0.001752 -3.276e-4,2.8272e-4 -8.0544e-4,3.474e-4 -0.00113808,6.2412e-4 -3.6444e-4,3.0312e-4 -5.5536e-4,7.8072e-4 -9.1776e-4,0.001086 -0.00259187,0.002185 2.1768e-4,-0.001084 -0.0020758,0.001827 -8.3244e-4,0.002145 -0.00153069,0.002825 -0.002679044,0.004661 -0.00100788,0.001612 -0.001238868,0.003517 -0.003271726,0.004212 -2.5632e-4,5.2872e-4 -5.1264e-4,0.001058 -7.6896e-4,0.001586 -3.1572e-4,4.7832e-4 -6.972e-4,9.192e-4 -9.474e-4,0.001435 -0.00112668,0.002323 -0.00189786,0.004835 -0.00330726,0.007033 -2.3148e-4,7.596e-4 -7.8576e-4,0.0028 -0.00125764,0.0035 -2.6064e-4,3.8628e-4 -7.6116e-4,5.5776e-4 -0.00104928,9.24e-4 -0.0010783,0.001371 -0.0019994,0.003014 -0.0027974,0.00456 -0.002379,0.0035 -0.005266,0.006606 -0.0065466,0.010743 -0.0013453,0.002743 -0.0034485,0.004839 -0.0048954,0.007502 -6.5184e-4,0.001939 -0.0015938,0.00344 -0.0024581,0.005256 -9.1584e-4,0.001924 -0.0011671,0.004139 -0.0029572,0.005553 -3.6564e-4,4.5444e-4 -6.8496e-4,9.5052e-4 -0.001097,0.001363 -3.7224e-4,3.7296e-4 -9.4488e-4,5.4348e-4 -0.0012409,9.7932e-4 -0.0010462,0.00154 -0.0015605,0.005031 -0.0025577,0.006718 -0.0019348,0.003348 2.4732e-4,-7.2084e-4 -0.001342,0.003396 -7.7604e-4,0.00201 -0.0026424,0.003517 -0.0032989,0.005622 -2.19e-4,5.232e-4 -4.3788e-4,0.001046 -6.5688e-4,0.00157 -2.778e-4,4.656e-4 -6.2352e-4,8.964e-4 -8.3352e-4,0.001395 -9.7908e-4,0.002328 -0.0011245,0.005182 -0.0036919,0.006405 -3.8436e-4,4.224e-4 -7.1628e-4,8.988e-4 -0.0011531,0.001267 -4.008e-4,3.372e-4 -9.9384e-4,4.32e-4 -0.0013355,8.292e-4 -3.9132e-4,4.548e-4 -4.7604e-4,0.001104 -7.752e-4,0.001625 -2.8116e-4,4.896e-4 -7.0956e-4,8.88e-4 -9.6012e-4,0.001393 -0.0017506,0.003531 4.4892e-4,5.316e-4 -0.001731,0.003216 -0.0033191,0.002473 -0.002682,0.005698 -0.0060033,0.007777 -0.0025496,0.003147 6.3468e-4,-5.328e-4 -0.0022663,0.002072 -0.0016799,0.001508 -0.003097,0.003281 -0.0049275,0.004638 -8.8572e-4,0.002221 -0.0021625,0.004368 -0.0028513,0.00666 -2.0472e-4,6.816e-4 -2.07e-4,0.00141 -3.8844e-4,0.002098 -1.5144e-4,5.736e-4 -4.0452e-4,0.001117 -6.0684e-4,0.001675 -6.6192e-4,0.001283 -0.0018633,0.00249 -0.0022876,0.003873 -5.3772e-4,0.001752 -4.4232e-4,0.003728 -0.0013424,0.005392 -0.0014677,0.003142 -0.0012856,0.007272 -0.0054313,0.00825 -4.14e-4,2.436e-4 -9.384e-4,3.6e-4 -0.0012421,7.32e-4 -3.648e-4,4.476e-4 -3.9396e-4,0.00109 -6.6036e-4,0.001602 -0.0010181,0.001958 -0.0028634,0.003403 -0.0039612,0.005326 -0.0017786,0.004054 3.1824e-4,-7.2e-5 -0.0018225,0.002688 -0.0011801,0.001519 -9.4248e-4,0.003835 -0.0028029,0.004845 -0.0080421,0.004602 -0.04020298,0.038939 -0.05245242,0.0246917 -0.001303,-0.001515 -0.001132,-0.001391 -0.001699,-0.002929 -0.001087,-0.002728 -0.003108,-0.00506 -0.003678,-0.008019 -0.001322,-0.003407 -0.003076,-0.006667 -0.00357,-0.0103464 -9.996e-4,-0.003295 -0.002391,-0.006472 -0.003872,-0.009575 -0.001162,-0.00288 -0.003433,-0.005018 -0.004589,-0.007909 -0.001632,-0.00296 -0.002991,-0.006084 -0.00407,-0.009288 -6.138e-4,-0.002727 -0.002177,-0.005048 -0.003229,-0.007617 -0.001431,-0.002828 -0.002484,-0.005853 -0.00408,-0.0086 -0.001932,-0.002806 -0.003804,-0.005664 -0.004971,-0.008872 -0.001986,-0.00361 -0.003657,-0.007374 -0.005686,-0.0109492 -0.001855,-0.002805 -0.003475,-0.005714 -0.005374,-0.008483 -0.001853,-0.002497 -0.004259,-0.004584 -0.0052,-0.00768 -0.001431,-0.002786 -0.002621,-0.005631 -0.00351,-0.008633 -0.00159,-0.002245 -0.003365,-0.004266 -0.005362,-0.006162 -0.002329,-0.00254 -0.004108,-0.005351 -0.005912,-0.008266 -0.001404,-0.002194 -0.002961,-0.004309 -0.004448,-0.006443 -0.001914,-0.002383 -0.003525,-0.004974 -0.005407,-0.00738 -0.00258,-0.001957 -0.00533,-0.003721 -0.007064,-0.006553 -0.001439,-0.002669 -0.002581,-0.005494 -0.003992,-0.00818 -0.001654,-0.002896 -0.003065,-0.00596 -0.005535,-0.008289 -0.004018,-0.004586 -0.006764,-0.009725 -0.009101,-0.0153353 0,0 0.0475219,-0.0270582 0.0475219,-0.0270582 z"
     inkscape:connector-curvature="0" />
</svg>
